<svg height="512pt" viewBox="0 0 512.00074 512" width="512pt" xmlns="http://www.w3.org/2000/svg"><path d="m71.96875 95.152344c0 11.046875-8.953125 20-20 20s-20-8.953125-20-20c0-11.042969 8.953125-20 20-20s20 8.957031 20 20zm0 0" fill="#f5737f"/><path d="m465.0625 461.984375c0 11.042969-8.953125 19.996094-19.996094 19.996094-11.046875 0-20-8.953125-20-19.996094 0-11.046875 8.953125-20 20-20 11.042969 0 19.996094 8.953125 19.996094 20zm0 0" fill="#f5737f"/><path d="m64.453125 480.472656-32.488281-32.488281 32.488281-32.484375 32.488281 32.484375zm0 0" fill="#91def5"/><path d="m430.96875 82.761719 32.488281-32.488281 32.488281 32.488281-32.488281 32.484375zm0 0" fill="#91def5"/><path d="m278.488281 71.710938 37.011719 74.992187 82.761719 12.027344c20.191406 2.933593 28.257812 27.75 13.644531 41.992187l-59.886719 58.375 14.136719 82.425782c3.449219 20.113281-17.660156 35.449218-35.722656 25.953124l-74.023438-38.914062-74.023437 38.914062c-18.058594 9.496094-39.171875-5.839843-35.71875-25.953124l14.136719-82.425782-59.886719-58.375c-14.613281-14.242187-6.550781-39.058594 13.644531-41.992187l82.757812-12.027344 37.011719-74.992187c9.03125-18.300782 35.125-18.300782 44.15625 0zm0 0" fill="#ffd89e"/><path d="m170.898438 380.34375c-7.148438 0-14.25-2.242188-20.316407-6.648438-10.738281-7.804687-16.015625-20.777343-13.773437-33.859374l13.25-77.246094-56.121094-54.707032c-9.507812-9.265624-12.863281-22.863281-8.761719-35.488281 4.101563-12.625 14.8125-21.652343 27.945313-23.558593l77.558594-11.269532 34.6875-70.28125c5.875-11.902344 17.769531-19.296875 31.042968-19.296875 13.273438 0 25.171875 7.394531 31.046875 19.296875l34.683594 70.28125 77.558594 11.269532c13.136719 1.90625 23.84375 10.933593 27.945312 23.558593 4.105469 12.625.746094 26.222657-8.757812 35.492188l-56.125 54.703125 13.25 77.242187c2.242187 13.085938-3.035157 26.058594-13.773438 33.863281-10.738281 7.800782-24.707031 8.808594-36.457031 2.632813l-34.128906-17.941406c-4.886719-2.570313-6.765625-8.613281-4.195313-13.503907 2.570313-4.886718 8.613281-6.765624 13.503907-4.199218l34.125 17.941406c5.039062 2.652344 10.796874 2.234375 15.398437-1.113281 4.605469-3.34375 6.777344-8.6875 5.816406-14.296875l-14.136719-82.425782c-.558593-3.246093.519532-6.554687 2.875-8.851562l59.886719-58.375c4.074219-3.972656 5.457031-9.574219 3.699219-14.984375-1.757812-5.414063-6.171875-9.132813-11.800781-9.953125l-82.761719-12.023438c-3.257812-.472656-6.074219-2.519531-7.53125-5.472656l-37.011719-74.992187c-2.519531-5.101563-7.417969-8.148438-13.109375-8.148438s-10.589844 3.046875-13.109375 8.148438l-37.011719 74.992187c-1.457031 2.953125-4.269531 5-7.527343 5.472656l-82.761719 12.023438c-5.632812.820312-10.042969 4.539062-11.804688 9.949219-1.757812 5.414062-.375 11.015625 3.703126 14.988281l59.886718 58.375c2.355469 2.296875 3.429688 5.605469 2.875 8.851562l-14.140625 82.425782c-.960937 5.609375 1.214844 10.953125 5.816407 14.296875 4.605468 3.347656 10.359374 3.765625 15.398437 1.113281l34.257813-18.011719c4.886718-2.566406 10.933593-.6875 13.503906 4.199219 2.570312 4.890625.691406 10.933594-4.199219 13.503906l-34.257813 18.011719c-5.109374 2.6875-10.640624 4.015625-16.140624 4.015625zm0 0"/><path d="m256.410156 511.980469c-5.519531 0-10-4.476563-10-10v-84.925781c0-5.523438 4.480469-10 10-10 5.523438 0 10 4.476562 10 10v84.925781c0 5.523437-4.476562 10-10 10zm0 0"/><path d="m502 320.828125c-1.023438 0-2.066406-.160156-3.09375-.492187l-69.484375-22.578126c-5.253906-1.707031-8.128906-7.351562-6.421875-12.601562 1.707031-5.253906 7.351562-8.125 12.601562-6.421875l69.488282 22.578125c5.25 1.707031 8.125 7.347656 6.417968 12.601562-1.371093 4.226563-5.292968 6.914063-9.507812 6.914063zm0 0"/><path d="m146.253906 91.660156c-3.089844 0-6.140625-1.429687-8.097656-4.121094l-52.0625-71.660156c-3.246094-4.46875-2.257812-10.722656 2.210938-13.96875 4.464843-3.242187 10.722656-2.257812 13.96875 2.210938l52.0625 71.660156c3.246093 4.46875 2.257812 10.722656-2.210938 13.96875-1.773438 1.289062-3.832031 1.910156-5.871094 1.910156zm0 0"/><path d="m366.566406 91.660156c-2.039062 0-4.09375-.621094-5.867187-1.910156-4.46875-3.246094-5.460938-9.5-2.214844-13.964844l52.066406-71.664062c3.246094-4.464844 9.5-5.453125 13.964844-2.210938 4.46875 3.246094 5.460937 9.5 2.214844 13.96875l-52.066407 71.660156c-1.953124 2.691407-5.003906 4.121094-8.097656 4.121094zm0 0"/><path d="m10 321.957031c-4.214844 0-8.136719-2.6875-9.507812-6.914062-1.707032-5.25 1.167968-10.890625 6.421874-12.601563l69.484376-22.574218c5.253906-1.707032 10.898437 1.167968 12.601562 6.417968 1.707031 5.253906-1.167969 10.894532-6.421875 12.601563l-69.484375 22.578125c-1.027344.332031-2.070312.492187-3.09375.492187zm0 0"/><path d="m64.457031 490.46875c-2.652343 0-5.195312-1.050781-7.070312-2.925781l-32.488281-32.488281c-3.902344-3.90625-3.902344-10.238282 0-14.144532l32.488281-32.488281c1.875-1.875 4.417969-2.929687 7.070312-2.929687 2.652344 0 5.195313 1.054687 7.070313 2.929687l32.488281 32.488281c3.90625 3.90625 3.90625 10.238282 0 14.144532l-32.488281 32.488281c-1.875 1.875-4.417969 2.925781-7.070313 2.925781zm-18.34375-42.484375 18.34375 18.34375 18.347657-18.34375-18.347657-18.347656zm0 0"/><path d="m463.460938 125.246094c-2.652344 0-5.195313-1.054688-7.070313-2.929688l-32.488281-32.488281c-1.875-1.875-2.925782-4.417969-2.925782-7.070313 0-2.652343 1.050782-5.195312 2.925782-7.070312l32.488281-32.488281c1.875-1.875 4.417969-2.929688 7.070313-2.929688 2.652343 0 5.199218 1.054688 7.074218 2.929688l32.484375 32.488281c3.90625 3.90625 3.90625 10.238281 0 14.140625l-32.484375 32.488281c-1.878906 1.875-4.421875 2.929688-7.074218 2.929688zm-18.34375-42.488282 18.34375 18.347657 18.347656-18.347657-18.347656-18.34375zm0 0"/><path d="m51.96875 125.152344c-16.542969 0-30-13.457032-30-30 0-16.539063 13.457031-29.996094 30-29.996094s30 13.457031 30 29.996094c0 16.542968-13.457031 30-30 30zm0-40c-5.511719 0-10 4.488281-10 10 0 5.515625 4.488281 10 10 10 5.515625 0 10-4.484375 10-10 0-5.511719-4.484375-10-10-10zm0 0"/><path d="m445.066406 491.980469c-16.542968 0-30-13.457031-30-29.996094 0-16.542969 13.457032-30 30-30 16.539063 0 29.996094 13.457031 29.996094 30 0 16.539063-13.457031 29.996094-29.996094 29.996094zm0-39.996094c-5.515625 0-10 4.484375-10 10 0 5.511719 4.484375 9.996094 10 9.996094 5.511719 0 9.996094-4.484375 9.996094-9.996094 0-5.515625-4.484375-10-9.996094-10zm0 0"/><path d="m256.496094 338.558594c-2.628906 0-5.210938-1.066406-7.070313-2.929688-1.871093-1.859375-2.929687-4.4375-2.929687-7.070312 0-2.628906 1.058594-5.207032 2.929687-7.066406 1.859375-1.859376 4.429688-2.933594 7.070313-2.933594 2.628906 0 5.210937 1.070312 7.070312 2.933594 1.859375 1.859374 2.929688 4.4375 2.929688 7.066406 0 2.632812-1.070313 5.210937-2.929688 7.070312-1.871094 1.863282-4.441406 2.929688-7.070312 2.929688zm0 0"/></svg>