<svg version="1.1" xmlns="http://www.w3.org/2000/svg" height="1024" width="1024" viewBox="0 0 1024 1024"><path d="M848.829931 606.801833c-114.665508-248.783201-40.440068-328.639537-39.928168-329.663336 1.023799-1.023799 1.535699-3.071398 0.511899-5.118996-1.023799-1.535699-3.071398-2.047598-4.607096-1.535699-1.535699 0.5119-161.248371 67.058846-141.284287 214.997828-44.023365-39.416268-248.271302-241.616607-122.855902-479.649916 0.5119-1.535699 0.5119-3.071398-0.5119-4.607097-1.023799-1.023799-3.071398-1.535699-4.607096-1.023799-2.559498 1.023799-66.546947 28.666377-117.225006 97.260922-47.094762 64.499348-90.606228 177.117258-32.249674 351.16312 21.499783 81.903935-18.940285 148.450881-40.440068 176.605359 5.118996-19.452184 11.773691-52.213758 10.749891-90.094328-1.535699-55.285156-21.499783-131.558195-106.475115-181.212455-1.535699-0.5119-3.071398-0.5119-4.095196 0-1.535699 1.023799-2.047598 2.559498-1.535699 4.095196 0 1.535699 32.249674 146.915183-23.547381 213.974029-48.118562 58.356553-95.213324 159.200773-69.618345 252.878398 21.499783 78.320637 88.04673 138.21289 198.617042 177.629158 28.154477 8.702293 55.285156 15.356988 85.487231 20.987883 2.047598 0.5119 4.095197-0.5119 4.607097-2.559498 0.5119-2.047598-0.5119-4.095197-2.047599-5.118995-56.820855-24.57118-115.177408-76.273039-71.665942-180.188656 41.463867-90.094328 33.785373-136.165291 25.594979-156.129376 21.499783 12.28559 63.987449 43.511465 53.237558 98.796621-0.5119 1.535699 0.5119 3.071398 2.047598 4.095197 1.535699 1.023799 3.071398 0.5119 4.607096-0.511899 1.535699-1.023799 128.998697-106.475115 71.154043-235.985712 28.666377 16.380787 104.427517 74.73734 59.892253 207.319334-14.845088 57.332754 25.59498 98.284721 27.642577 99.820421 1.535699 1.535699 3.583297 1.535699 5.118996 0.511899 1.535699-1.023799 2.047598-3.071398 1.535699-4.607096-1.535699-3.583297-31.737775-85.487232 34.297273-130.534396-3.583297 20.987883-9.214193 72.689742 14.333188 101.356119 20.987883 25.59498 41.463867 67.058846 35.321072 108.010814-4.607096 28.666377-21.499783 52.725658-50.678059 71.665943-1.535699 1.023799-2.047598 3.071398-1.535699 5.118996 1.023799 2.047598 3.071398 2.559498 4.607096 2.047598 72.177842-24.059281 166.879267-71.665943 207.831234-162.27217 29.690176-66.035047 25.59498-145.891383-12.28559-237.521411z" fill="#D81E06"></path></svg>